<svg xmlns="http://www.w3.org/2000/svg" width="74" height="72.792" viewBox="0 0 74 72.792"><path d="M16.564,72.8H1.222V24.2H16.564ZM8.885,17.573A8.885,8.885,0,0,1,0,8.75,8.813,8.813,0,0,1,8.885.01,8.813,8.813,0,0,1,17.77,8.75,8.886,8.886,0,0,1,8.885,17.573ZM73.983,72.8H58.675V49.144c0-5.638-.116-12.869-7.976-12.869-7.976,0-9.2,6.126-9.2,12.463V72.8H26.174V24.2H40.888v6.629H41.1c2.048-3.818,7.051-7.848,14.516-7.848C71.146,22.984,74,33.042,74,46.106V72.8Z" transform="translate(0 -0.01)" fill="#eb1750"/></svg>