<svg xmlns="http://www.w3.org/2000/svg" width="91.279" height="80.346" viewBox="0 0 91.279 80.346">
  <g id="fox-svgrepo-com" transform="translate(0.899 -29.143)">
    <g id="Group_12" data-name="Group 12" transform="translate(0 29.989)">
      <g id="Group_11" data-name="Group 11">
        <path id="Path_8" data-name="Path 8" d="M86.223,72.659c-3.775-2.484-6.342-6.7-9.061-11.164q-.478-.786-.963-1.575a33.093,33.093,0,0,0-2.154-26.873l-1.87-3.058L60.042,44.09a37.839,37.839,0,0,0-15.3-2.848,37.842,37.842,0,0,0-15.3,2.848L17.309,29.99l-1.87,3.058A33.1,33.1,0,0,0,13.283,59.92q-.486.789-.963,1.575C9.6,65.958,7.033,70.174,3.259,72.659L0,74.8,3.225,77c.222.151,22.221,15.144,27.239,20.162a47.108,47.108,0,0,1,4.073,4.827c2.762,3.6,5.371,7,10.2,7s7.441-3.4,10.2-7a47.063,47.063,0,0,1,4.073-4.827C64.035,92.143,86.035,77.15,86.257,77l3.225-2.2ZM71.136,39.205a28.424,28.424,0,0,1,1.225,14.971A34.208,34.208,0,0,0,66.367,47.9q-.808-.645-1.657-1.225ZM17.311,42.776a29.058,29.058,0,0,1,1.038-3.568l6.423,7.465q-.849.581-1.656,1.225a34.218,34.218,0,0,0-6,6.287,27.683,27.683,0,0,1,.195-11.409ZM36.677,96.261c-.756-.918-1.585-1.86-2.519-2.794C30.177,89.486,17.186,80.306,10.38,75.583A60.1,60.1,0,0,1,27.444,73a6.607,6.607,0,0,1,5.025,2.018C36.557,79.271,36.846,89.12,36.677,96.261Zm8.064,7.5a4.317,4.317,0,0,1-3.043-1.387c.017-.662.046-1.43.078-2.274.008-.2.015-.4.023-.606h5.883c.008.2.016.407.023.606.032.845.062,1.613.078,2.274a4.318,4.318,0,0,1-3.042,1.391Zm2.8-9.491h-5.6c.071-7.919-.661-17.633-5.7-22.874a11.731,11.731,0,0,0-8.788-3.62A64.113,64.113,0,0,0,13.508,69.36c1.156-1.676,2.222-3.422,3.273-5.148,2.667-4.379,5.426-8.907,9.592-12.231,4.652-3.712,10.661-5.516,18.368-5.516s13.716,1.8,18.368,5.516c4.166,3.324,6.924,7.852,9.592,12.231,1.051,1.726,2.117,3.472,3.273,5.148a64.113,64.113,0,0,0-13.936-1.579A11.732,11.732,0,0,0,53.25,71.4c-5.045,5.242-5.776,14.956-5.705,22.875Zm7.779-.807c-.933.933-1.762,1.876-2.519,2.794-.169-7.141.119-16.99,4.208-21.238A6.606,6.606,0,0,1,62.034,73,60.24,60.24,0,0,1,79.1,75.587c-6.812,4.724-19.8,13.9-23.776,17.881Z" transform="translate(0 -29.989)" fill="#eb1750" stroke="#eb1750" stroke-width="1"/>
      </g>
    </g>
    <g id="Group_14" data-name="Group 14" transform="translate(60.281 75.83)">
      <g id="Group_13" data-name="Group 13">
        <path id="Path_9" data-name="Path 9" d="M347.908,292.285a3.027,3.027,0,1,0,2.987,3.027,3.027,3.027,0,0,0-2.987-3.027Z" transform="translate(-344.919 -292.285)" fill="#eb1750" stroke="#eb1750" stroke-width="1"/>
      </g>
    </g>
    <g id="Group_16" data-name="Group 16" transform="translate(23.224 75.83)">
      <g id="Group_15" data-name="Group 15">
        <path id="Path_10" data-name="Path 10" d="M135.871,292.285a3.027,3.027,0,1,0,2.987,3.027,3.027,3.027,0,0,0-2.987-3.027Z" transform="translate(-132.882 -292.285)" fill="#eb1750" stroke="#eb1750" stroke-width="1"/>
      </g>
    </g>
  </g>
</svg>
